<mxfile host="app.diagrams.net" modified="2020-11-24T06:16:17.902Z" agent="5.0 (Windows NT 10.0; Win64; x64) AppleWebKit/537.36 (KHTML, like Gecko) Chrome/86.0.4240.198 Safari/537.36" etag="Ri9OQNmx5B_ZFVTWc_Iz" version="13.10.1" type="github">
  <diagram id="C5RBs43oDa-KdzZeNtuy" name="Page-1">
    <mxGraphModel dx="1422" dy="804" grid="1" gridSize="10" guides="1" tooltips="1" connect="1" arrows="1" fold="1" page="1" pageScale="1" pageWidth="827" pageHeight="1169" math="0" shadow="0">
      <root>
        <mxCell id="WIyWlLk6GJQsqaUBKTNV-0" />
        <mxCell id="WIyWlLk6GJQsqaUBKTNV-1" parent="WIyWlLk6GJQsqaUBKTNV-0" />
        <mxCell id="hmW7alC1AXz2rNd0sEe--2" style="edgeStyle=orthogonalEdgeStyle;rounded=0;orthogonalLoop=1;jettySize=auto;html=1;entryX=0.5;entryY=0;entryDx=0;entryDy=0;" edge="1" parent="WIyWlLk6GJQsqaUBKTNV-1" source="hmW7alC1AXz2rNd0sEe--1" target="hmW7alC1AXz2rNd0sEe--3">
          <mxGeometry relative="1" as="geometry">
            <mxPoint x="230" y="190" as="targetPoint" />
          </mxGeometry>
        </mxCell>
        <mxCell id="hmW7alC1AXz2rNd0sEe--1" value="시작" style="ellipse;whiteSpace=wrap;html=1;" vertex="1" parent="WIyWlLk6GJQsqaUBKTNV-1">
          <mxGeometry x="320" y="100" width="120" height="50" as="geometry" />
        </mxCell>
        <mxCell id="hmW7alC1AXz2rNd0sEe--46" style="edgeStyle=orthogonalEdgeStyle;rounded=0;orthogonalLoop=1;jettySize=auto;html=1;" edge="1" parent="WIyWlLk6GJQsqaUBKTNV-1" source="hmW7alC1AXz2rNd0sEe--3">
          <mxGeometry relative="1" as="geometry">
            <mxPoint x="380" y="300" as="targetPoint" />
          </mxGeometry>
        </mxCell>
        <mxCell id="hmW7alC1AXz2rNd0sEe--3" value="int year" style="shape=hexagon;perimeter=hexagonPerimeter2;whiteSpace=wrap;html=1;fixedSize=1;" vertex="1" parent="WIyWlLk6GJQsqaUBKTNV-1">
          <mxGeometry x="320" y="190" width="120" height="50" as="geometry" />
        </mxCell>
        <mxCell id="hmW7alC1AXz2rNd0sEe--5" value="문제: 연도를 입력받았을 때 윤년인지 아닌지 판단하시오." style="rounded=0;whiteSpace=wrap;html=1;" vertex="1" parent="WIyWlLk6GJQsqaUBKTNV-1">
          <mxGeometry x="325" y="20" width="120" height="60" as="geometry" />
        </mxCell>
        <mxCell id="hmW7alC1AXz2rNd0sEe--59" style="edgeStyle=orthogonalEdgeStyle;rounded=0;orthogonalLoop=1;jettySize=auto;html=1;entryX=0.5;entryY=0;entryDx=0;entryDy=0;" edge="1" parent="WIyWlLk6GJQsqaUBKTNV-1" source="hmW7alC1AXz2rNd0sEe--8" target="hmW7alC1AXz2rNd0sEe--11">
          <mxGeometry relative="1" as="geometry" />
        </mxCell>
        <mxCell id="hmW7alC1AXz2rNd0sEe--60" style="edgeStyle=orthogonalEdgeStyle;rounded=0;orthogonalLoop=1;jettySize=auto;html=1;entryX=0.5;entryY=0;entryDx=0;entryDy=0;" edge="1" parent="WIyWlLk6GJQsqaUBKTNV-1" source="hmW7alC1AXz2rNd0sEe--8" target="hmW7alC1AXz2rNd0sEe--61">
          <mxGeometry relative="1" as="geometry">
            <mxPoint x="160" y="520" as="targetPoint" />
            <Array as="points">
              <mxPoint x="160" y="340" />
            </Array>
          </mxGeometry>
        </mxCell>
        <mxCell id="hmW7alC1AXz2rNd0sEe--8" value="input year&amp;nbsp;" style="shape=parallelogram;perimeter=parallelogramPerimeter;whiteSpace=wrap;html=1;fixedSize=1;" vertex="1" parent="WIyWlLk6GJQsqaUBKTNV-1">
          <mxGeometry x="310" y="310" width="130" height="60" as="geometry" />
        </mxCell>
        <mxCell id="hmW7alC1AXz2rNd0sEe--52" style="edgeStyle=orthogonalEdgeStyle;rounded=0;orthogonalLoop=1;jettySize=auto;html=1;entryX=0.5;entryY=0;entryDx=0;entryDy=0;" edge="1" parent="WIyWlLk6GJQsqaUBKTNV-1" source="hmW7alC1AXz2rNd0sEe--11" target="hmW7alC1AXz2rNd0sEe--43">
          <mxGeometry relative="1" as="geometry">
            <mxPoint x="230" y="440" as="targetPoint" />
            <Array as="points">
              <mxPoint x="240" y="440" />
            </Array>
          </mxGeometry>
        </mxCell>
        <mxCell id="hmW7alC1AXz2rNd0sEe--53" style="edgeStyle=orthogonalEdgeStyle;rounded=0;orthogonalLoop=1;jettySize=auto;html=1;" edge="1" parent="WIyWlLk6GJQsqaUBKTNV-1" source="hmW7alC1AXz2rNd0sEe--11">
          <mxGeometry relative="1" as="geometry">
            <mxPoint x="500" y="500" as="targetPoint" />
            <Array as="points">
              <mxPoint x="490" y="440" />
              <mxPoint x="490" y="440" />
            </Array>
          </mxGeometry>
        </mxCell>
        <mxCell id="hmW7alC1AXz2rNd0sEe--11" value="year&amp;nbsp; % 4 == 0" style="rhombus;whiteSpace=wrap;html=1;" vertex="1" parent="WIyWlLk6GJQsqaUBKTNV-1">
          <mxGeometry x="335" y="400" width="80" height="80" as="geometry" />
        </mxCell>
        <mxCell id="hmW7alC1AXz2rNd0sEe--20" value="yes" style="text;html=1;strokeColor=none;fillColor=none;align=center;verticalAlign=middle;whiteSpace=wrap;rounded=0;" vertex="1" parent="WIyWlLk6GJQsqaUBKTNV-1">
          <mxGeometry x="510" y="430" width="40" height="20" as="geometry" />
        </mxCell>
        <mxCell id="hmW7alC1AXz2rNd0sEe--58" style="edgeStyle=orthogonalEdgeStyle;rounded=0;orthogonalLoop=1;jettySize=auto;html=1;entryX=0.455;entryY=-0.004;entryDx=0;entryDy=0;entryPerimeter=0;" edge="1" parent="WIyWlLk6GJQsqaUBKTNV-1" source="hmW7alC1AXz2rNd0sEe--24" target="hmW7alC1AXz2rNd0sEe--38">
          <mxGeometry relative="1" as="geometry">
            <mxPoint x="390" y="540" as="targetPoint" />
            <Array as="points">
              <mxPoint x="397" y="540" />
            </Array>
          </mxGeometry>
        </mxCell>
        <mxCell id="hmW7alC1AXz2rNd0sEe--24" value="year % 100&lt;br&gt;! = 0" style="rhombus;whiteSpace=wrap;html=1;" vertex="1" parent="WIyWlLk6GJQsqaUBKTNV-1">
          <mxGeometry x="460" y="500" width="80" height="80" as="geometry" />
        </mxCell>
        <mxCell id="hmW7alC1AXz2rNd0sEe--28" value="yes" style="text;html=1;strokeColor=none;fillColor=none;align=center;verticalAlign=middle;whiteSpace=wrap;rounded=0;" vertex="1" parent="WIyWlLk6GJQsqaUBKTNV-1">
          <mxGeometry x="590" y="510" width="40" height="20" as="geometry" />
        </mxCell>
        <mxCell id="hmW7alC1AXz2rNd0sEe--77" style="edgeStyle=orthogonalEdgeStyle;rounded=0;orthogonalLoop=1;jettySize=auto;html=1;" edge="1" parent="WIyWlLk6GJQsqaUBKTNV-1" source="hmW7alC1AXz2rNd0sEe--29">
          <mxGeometry relative="1" as="geometry">
            <mxPoint x="610" y="880" as="targetPoint" />
          </mxGeometry>
        </mxCell>
        <mxCell id="hmW7alC1AXz2rNd0sEe--29" value="윤년입니다" style="shape=document;whiteSpace=wrap;html=1;boundedLbl=1;" vertex="1" parent="WIyWlLk6GJQsqaUBKTNV-1">
          <mxGeometry x="575" y="610" width="70" height="40" as="geometry" />
        </mxCell>
        <mxCell id="hmW7alC1AXz2rNd0sEe--34" value="no" style="text;html=1;strokeColor=none;fillColor=none;align=center;verticalAlign=middle;whiteSpace=wrap;rounded=0;" vertex="1" parent="WIyWlLk6GJQsqaUBKTNV-1">
          <mxGeometry x="400" y="510" width="40" height="20" as="geometry" />
        </mxCell>
        <mxCell id="hmW7alC1AXz2rNd0sEe--76" style="edgeStyle=orthogonalEdgeStyle;rounded=0;orthogonalLoop=1;jettySize=auto;html=1;" edge="1" parent="WIyWlLk6GJQsqaUBKTNV-1" source="hmW7alC1AXz2rNd0sEe--38">
          <mxGeometry relative="1" as="geometry">
            <mxPoint x="400" y="870" as="targetPoint" />
          </mxGeometry>
        </mxCell>
        <mxCell id="hmW7alC1AXz2rNd0sEe--38" value="윤년이 아닙니다" style="shape=document;whiteSpace=wrap;html=1;boundedLbl=1;" vertex="1" parent="WIyWlLk6GJQsqaUBKTNV-1">
          <mxGeometry x="370" y="610" width="60" height="40" as="geometry" />
        </mxCell>
        <mxCell id="hmW7alC1AXz2rNd0sEe--41" value="no" style="text;html=1;strokeColor=none;fillColor=none;align=center;verticalAlign=middle;whiteSpace=wrap;rounded=0;" vertex="1" parent="WIyWlLk6GJQsqaUBKTNV-1">
          <mxGeometry x="240" y="410" width="40" height="20" as="geometry" />
        </mxCell>
        <mxCell id="hmW7alC1AXz2rNd0sEe--43" value="윤년이 아닙니다" style="shape=document;whiteSpace=wrap;html=1;boundedLbl=1;" vertex="1" parent="WIyWlLk6GJQsqaUBKTNV-1">
          <mxGeometry x="210" y="500" width="60" height="40" as="geometry" />
        </mxCell>
        <mxCell id="hmW7alC1AXz2rNd0sEe--57" style="edgeStyle=orthogonalEdgeStyle;rounded=0;orthogonalLoop=1;jettySize=auto;html=1;entryX=0.5;entryY=0;entryDx=0;entryDy=0;" edge="1" parent="WIyWlLk6GJQsqaUBKTNV-1" source="hmW7alC1AXz2rNd0sEe--24" target="hmW7alC1AXz2rNd0sEe--29">
          <mxGeometry relative="1" as="geometry">
            <mxPoint x="620" y="540" as="targetPoint" />
            <mxPoint x="540" y="540" as="sourcePoint" />
          </mxGeometry>
        </mxCell>
        <mxCell id="hmW7alC1AXz2rNd0sEe--64" style="edgeStyle=orthogonalEdgeStyle;rounded=0;orthogonalLoop=1;jettySize=auto;html=1;" edge="1" parent="WIyWlLk6GJQsqaUBKTNV-1" source="hmW7alC1AXz2rNd0sEe--61">
          <mxGeometry relative="1" as="geometry">
            <mxPoint x="220" y="620" as="targetPoint" />
          </mxGeometry>
        </mxCell>
        <mxCell id="hmW7alC1AXz2rNd0sEe--74" style="edgeStyle=orthogonalEdgeStyle;rounded=0;orthogonalLoop=1;jettySize=auto;html=1;entryX=0.429;entryY=0;entryDx=0;entryDy=0;entryPerimeter=0;" edge="1" parent="WIyWlLk6GJQsqaUBKTNV-1" source="hmW7alC1AXz2rNd0sEe--61" target="hmW7alC1AXz2rNd0sEe--70">
          <mxGeometry relative="1" as="geometry" />
        </mxCell>
        <mxCell id="hmW7alC1AXz2rNd0sEe--61" value="year % 400 == 0" style="rhombus;whiteSpace=wrap;html=1;" vertex="1" parent="WIyWlLk6GJQsqaUBKTNV-1">
          <mxGeometry x="120" y="530" width="80" height="80" as="geometry" />
        </mxCell>
        <mxCell id="hmW7alC1AXz2rNd0sEe--65" value="yes" style="text;html=1;strokeColor=none;fillColor=none;align=center;verticalAlign=middle;whiteSpace=wrap;rounded=0;" vertex="1" parent="WIyWlLk6GJQsqaUBKTNV-1">
          <mxGeometry x="230" y="585" width="40" height="20" as="geometry" />
        </mxCell>
        <mxCell id="hmW7alC1AXz2rNd0sEe--75" style="edgeStyle=orthogonalEdgeStyle;rounded=0;orthogonalLoop=1;jettySize=auto;html=1;" edge="1" parent="WIyWlLk6GJQsqaUBKTNV-1" source="hmW7alC1AXz2rNd0sEe--66">
          <mxGeometry relative="1" as="geometry">
            <mxPoint x="300" y="870" as="targetPoint" />
          </mxGeometry>
        </mxCell>
        <mxCell id="hmW7alC1AXz2rNd0sEe--66" value="윤년입니다" style="shape=document;whiteSpace=wrap;html=1;boundedLbl=1;" vertex="1" parent="WIyWlLk6GJQsqaUBKTNV-1">
          <mxGeometry x="180" y="630" width="80" height="40" as="geometry" />
        </mxCell>
        <mxCell id="hmW7alC1AXz2rNd0sEe--69" value="no" style="text;html=1;strokeColor=none;fillColor=none;align=center;verticalAlign=middle;whiteSpace=wrap;rounded=0;" vertex="1" parent="WIyWlLk6GJQsqaUBKTNV-1">
          <mxGeometry y="580" width="40" height="20" as="geometry" />
        </mxCell>
        <mxCell id="hmW7alC1AXz2rNd0sEe--78" style="edgeStyle=orthogonalEdgeStyle;rounded=0;orthogonalLoop=1;jettySize=auto;html=1;" edge="1" parent="WIyWlLk6GJQsqaUBKTNV-1" source="hmW7alC1AXz2rNd0sEe--70">
          <mxGeometry relative="1" as="geometry">
            <mxPoint x="45" y="880" as="targetPoint" />
          </mxGeometry>
        </mxCell>
        <mxCell id="hmW7alC1AXz2rNd0sEe--70" value="윤년이 아닙니다." style="shape=document;whiteSpace=wrap;html=1;boundedLbl=1;" vertex="1" parent="WIyWlLk6GJQsqaUBKTNV-1">
          <mxGeometry x="10" y="625" width="70" height="50" as="geometry" />
        </mxCell>
        <mxCell id="hmW7alC1AXz2rNd0sEe--80" value="&lt;font style=&quot;font-size: 51px&quot;&gt;끝~~&lt;/font&gt;" style="ellipse;whiteSpace=wrap;html=1;" vertex="1" parent="WIyWlLk6GJQsqaUBKTNV-1">
          <mxGeometry x="5" y="910" width="760" height="270" as="geometry" />
        </mxCell>
      </root>
    </mxGraphModel>
  </diagram>
</mxfile>
